<mxfile host="app.diagrams.net" modified="2022-05-28T19:02:37.599Z" agent="5.0 (Windows NT 10.0; Win64; x64) AppleWebKit/537.36 (KHTML, like Gecko) Chrome/84.0.4147.105 Safari/537.36" etag="otAC8v7nDU8OFGQLStUt" version="18.1.3" type="github">
  <diagram id="W9CLxcM4xHkw4j6QIjTj" name="Page-1">
    <mxGraphModel dx="505" dy="306" grid="1" gridSize="10" guides="1" tooltips="1" connect="1" arrows="1" fold="1" page="1" pageScale="1" pageWidth="827" pageHeight="1169" math="0" shadow="0">
      <root>
        <mxCell id="0" />
        <mxCell id="1" parent="0" />
        <mxCell id="WHgoRAr8FlT6cZ9x1yEm-2" value="" style="endArrow=none;html=1;rounded=0;curved=1;strokeWidth=4;fillColor=#dae8fc;strokeColor=#6c8ebf;" edge="1" parent="1">
          <mxGeometry width="50" height="50" relative="1" as="geometry">
            <mxPoint x="153" y="170" as="sourcePoint" />
            <mxPoint x="313" y="170" as="targetPoint" />
          </mxGeometry>
        </mxCell>
        <mxCell id="WHgoRAr8FlT6cZ9x1yEm-3" value="" style="endArrow=none;html=1;rounded=0;curved=1;strokeWidth=4;fillColor=#f8cecc;strokeColor=#b85450;" edge="1" parent="1">
          <mxGeometry width="50" height="50" relative="1" as="geometry">
            <mxPoint x="153" y="200" as="sourcePoint" />
            <mxPoint x="312.9999999999999" y="200" as="targetPoint" />
          </mxGeometry>
        </mxCell>
        <mxCell id="WHgoRAr8FlT6cZ9x1yEm-4" value="" style="endArrow=none;html=1;rounded=0;curved=1;strokeWidth=4;fillColor=#d5e8d4;strokeColor=#82b366;" edge="1" parent="1">
          <mxGeometry width="50" height="50" relative="1" as="geometry">
            <mxPoint x="153" y="230" as="sourcePoint" />
            <mxPoint x="312.9999999999999" y="230" as="targetPoint" />
          </mxGeometry>
        </mxCell>
        <mxCell id="WHgoRAr8FlT6cZ9x1yEm-5" value="" style="endArrow=none;html=1;rounded=0;strokeColor=#9AC7BF;strokeWidth=4;curved=1;fillColor=#fad9d5;" edge="1" parent="1">
          <mxGeometry width="50" height="50" relative="1" as="geometry">
            <mxPoint x="113" y="170" as="sourcePoint" />
            <mxPoint x="153" y="170" as="targetPoint" />
          </mxGeometry>
        </mxCell>
        <mxCell id="WHgoRAr8FlT6cZ9x1yEm-6" value="" style="endArrow=none;html=1;rounded=0;strokeColor=#d6b656;strokeWidth=4;curved=1;fillColor=#fff2cc;gradientColor=#ffd966;" edge="1" parent="1">
          <mxGeometry width="50" height="50" relative="1" as="geometry">
            <mxPoint x="113" y="200" as="sourcePoint" />
            <mxPoint x="153" y="200" as="targetPoint" />
          </mxGeometry>
        </mxCell>
        <mxCell id="WHgoRAr8FlT6cZ9x1yEm-7" value="" style="endArrow=none;html=1;rounded=0;strokeColor=#9673a6;strokeWidth=4;curved=1;fillColor=#e1d5e7;" edge="1" parent="1">
          <mxGeometry width="50" height="50" relative="1" as="geometry">
            <mxPoint x="113" y="230" as="sourcePoint" />
            <mxPoint x="153" y="230" as="targetPoint" />
          </mxGeometry>
        </mxCell>
      </root>
    </mxGraphModel>
  </diagram>
</mxfile>
